


<svg width="19" height="19" viewBox="0 0 19 19" fill="none" xmlns="http://www.w3.org/2000/svg">
<symbol id="logo-small" viewBox="0 0 19 19">
  <path d="M16.7014 11.022L12.6949 1.84445L11.8213 1.23883L10.797 0.912729L9.41133 0.540039L7.78461 1.23883L6.70013 1.84445L10.797 11.022H16.7014Z" fill="url(#paint0_linear_102_283)" />
  <path d="M2.32305 7.9535L6.32959 17.1525L7.2032 17.7595L8.22743 18.0864L9.61315 18.46L11.2399 17.7595L12.3243 17.1525L8.22743 7.9535H2.32305Z" fill="url(#paint1_linear_102_283)" />
  <path d="M6.4859 1.9646L0.265933 10.9553L6.4859 11.022L10.9822 1.9646C11.2979 1.03802 12.2856 1.57853 12.74 1.9646C10.798 -1.59348 7.76144 0.482067 6.4859 1.9646Z" fill="white" />
  <path d="M12.5141 17.0354L18.7341 8.04468L12.5141 7.97804L8.01783 17.0354C7.70213 17.962 6.71439 17.4215 6.25997 17.0354C8.20198 20.5935 11.2386 18.5179 12.5141 17.0354Z" fill="white" />
  <defs>
    <linearGradient id="paint0_linear_102_283" x1="15.6653" y1="11.022" x2="10.9137" y2="2.13271" gradientUnits="userSpaceOnUse">
      <stop />
      <stop offset="0.494792" stop-color="white" />
      <stop offset="1" stop-color="white" />
    </linearGradient>
    <linearGradient id="paint1_linear_102_283" x1="3.35922" y1="7.9535" x2="8.12811" y2="16.8543" gradientUnits="userSpaceOnUse">
      <stop stop-color="#0C0C0C" />
      <stop offset="0.494792" stop-color="white" />
      <stop offset="1" stop-color="white" />
    </linearGradient>
  </defs>
  </symbol>





<symbol id="logo-big" viewBox="0 0 50 50">
  <path d="M43.9511 29.0059L33.4076 4.85455L31.1086 3.26081L28.4133 2.40264L24.7667 1.42188L20.4858 3.26081L17.632 4.85455L28.4133 29.0059H43.9511Z" fill="url(#paint0_linear_102_110)" />
  <path d="M6.11333 20.9295L16.6568 45.1374L18.9558 46.7349L21.6511 47.5951L25.2978 48.5781L29.5786 46.7349L32.4325 45.1374L21.6511 20.9295L6.11333 20.9295Z" fill="url(#paint1_linear_102_110)" />
  <path d="M17.0682 5.17001L0.699824 28.8298L17.0682 29.0052L28.9005 5.17001C29.7312 2.73162 32.3306 4.15401 33.5264 5.17001C28.4158 -4.19337 20.4248 1.2686 17.0682 5.17001Z" fill="white" />
  <path d="M32.9318 44.83L49.3002 21.1702L32.9318 20.9948L21.0995 44.83C20.2688 47.2684 17.6694 45.846 16.4736 44.83C21.5842 54.1934 29.5752 48.7314 32.9318 44.83Z" fill="white" />
  <defs>
    <linearGradient id="paint0_linear_102_110" x1="41.2244" y1="29.0059" x2="28.7202" y2="5.61312" gradientUnits="userSpaceOnUse">
      <stop />
      <stop offset="0.494792" stop-color="white" />
      <stop offset="1" stop-color="white" />
    </linearGradient>
    <linearGradient id="paint1_linear_102_110" x1="8.84009" y1="20.9295" x2="21.3898" y2="44.3526" gradientUnits="userSpaceOnUse">
      <stop stop-color="#0C0C0C" />
      <stop offset="0.494792" stop-color="white" />
      <stop offset="1" stop-color="white" />
    </linearGradient>
  </defs>
  </symbol>
</svg>